<?xml version="1.0" encoding="UTF-8" standalone="no"?>
<!-- Created with Inkscape (http://www.inkscape.org/) -->

<svg
   width="120"
   height="120"
   viewBox="0 0 120 120"
   version="1.1"
   id="svg1"
   xml:space="preserve"
   inkscape:version="1.3 (0e150ed6c4, 2023-07-21)"
   sodipodi:docname="logo.svg"
   xmlns:inkscape="http://www.inkscape.org/namespaces/inkscape"
   xmlns:sodipodi="http://sodipodi.sourceforge.net/DTD/sodipodi-0.dtd"
   xmlns="http://www.w3.org/2000/svg"
   xmlns:svg="http://www.w3.org/2000/svg"><sodipodi:namedview
     id="namedview1"
     pagecolor="#ffffff"
     bordercolor="#000000"
     borderopacity="0.25"
     inkscape:showpageshadow="2"
     inkscape:pageopacity="0.0"
     inkscape:pagecheckerboard="0"
     inkscape:deskcolor="#d1d1d1"
     inkscape:document-units="px"
     showgrid="true"
     inkscape:zoom="4"
     inkscape:cx="39.5"
     inkscape:cy="30.875"
     inkscape:window-width="1920"
     inkscape:window-height="1051"
     inkscape:window-x="-9"
     inkscape:window-y="-9"
     inkscape:window-maximized="1"
     inkscape:current-layer="layer2"><inkscape:grid
       id="grid1"
       units="px"
       originx="0"
       originy="0"
       spacingx="1"
       spacingy="1"
       empcolor="#0099e5"
       empopacity="0.30196078"
       color="#0099e5"
       opacity="0.14901961"
       empspacing="5"
       dotted="false"
       gridanglex="30"
       gridanglez="30"
       visible="true" /></sodipodi:namedview><defs
     id="defs1" /><g
     inkscape:groupmode="layer"
     id="layer2"
     inkscape:label="Layer 2"
     style="opacity:1"><path
       style="fill:#3f3429;stroke-linecap:round;stroke-linejoin:round"
       d="m 98,45 h 7 v -8 h -3 v -8 h -3 v -4 h -4 v -4 h -4 v -3 h -7 v 0 -4 H 77 V 10 H 48 v 4 h -7 v 4 h -7 v 3 h -4 l -0.01563,4 H 26 v 4 h -3 v 8 h -4 v 8 h -3 v 30 h 3 v 8 h 4 v 8 h 3 v 4 h 4 v 4 h 4 l 0.01563,3 H 41 v 4 h 7 v 4 h 29 v -4 h 7 l 0.01563,-4 H 91 v -3 h 4 v -4 h 3.972827 L 99,91 h 3 v -7 h 3 v -7 h -7 l 0.01563,7 H 95 l 0.01563,7 H 91 v 4 h -7 v 4 h -7 v 4 H 48 V 99 H 41 V 95 H 34 V 91 H 30 V 83 H 26 V 75 H 23 V 45 h 3 v -8 h 4 v -8 h 4 V 25.897786 25 h 7 v -4 h 7 l 0.01563,-4 H 77 l 0.01563,4 H 84 v 4 h 7 v 4 h 4 v 8 h 3 z"
       id="path11" /><path
       style="fill:#3f3429;stroke-linecap:round;stroke-linejoin:round"
       d="M 73,91 H 52.01563 l -0.0089,-4 H 45.01564 L 45,83 H 41.015625 L 41,79 H 37.015625 L 37,72 h -3 c 0,0 0,-21 0,-21 h 3.015625 v 0 L 37,44 h 7 v 7 h 8 v -8 h -7 v -7 h 7 v -3 h 21 v 3 h 7 v 4 h 4 v 4 h 4 v 7 h 3 v 21 h -3 v 7 h -4 v 4 h -4 v 5 h -7 v 3 H 52.01563 L 52,87 H 45 V 83 H 41 V 79 H 37 V 72 H 34.015625 L 34,51 v 0"
       id="path12" /><path
       style="fill:#ffe4c9;stroke-linecap:round;stroke-linejoin:round;fill-opacity:1"
       d="m 62,76 v -4 h -4 v -4 h -4 v -4 h -4 v -8 l 3.997406,-0.04013 v -3.80362 h 7.01824 l -2.1e-5,3.9375 H 68 l 0.0078,-3.9375 H 73 L 73.015625,56 H 78 v 8 h -3.992737 v 4.011406 L 70,68 v 4 h -4 v 4 z"
       id="path13" /></g></svg>
