<?xml version="1.0" encoding="UTF-8" standalone="no"?>
<!-- Created with Inkscape (http://www.inkscape.org/) -->

<svg
   width="32"
   height="32"
   viewBox="0 0 32 32"
   version="1.1"
   id="svg1"
   xml:space="preserve"
   inkscape:version="1.3 (0e150ed6c4, 2023-07-21)"
   sodipodi:docname="wishlist.svg"
   xmlns:inkscape="http://www.inkscape.org/namespaces/inkscape"
   xmlns:sodipodi="http://sodipodi.sourceforge.net/DTD/sodipodi-0.dtd"
   xmlns="http://www.w3.org/2000/svg"
   xmlns:svg="http://www.w3.org/2000/svg"><sodipodi:namedview
     id="namedview1"
     pagecolor="#ffffff"
     bordercolor="#000000"
     borderopacity="0.25"
     inkscape:showpageshadow="2"
     inkscape:pageopacity="0.0"
     inkscape:pagecheckerboard="0"
     inkscape:deskcolor="#d1d1d1"
     inkscape:document-units="px"
     showgrid="true"
     inkscape:zoom="16"
     inkscape:cx="10.96875"
     inkscape:cy="12.5"
     inkscape:window-width="1920"
     inkscape:window-height="1051"
     inkscape:window-x="-9"
     inkscape:window-y="-9"
     inkscape:window-maximized="1"
     inkscape:current-layer="layer1"><inkscape:grid
       id="grid1"
       units="px"
       originx="0"
       originy="0"
       spacingx="1"
       spacingy="1"
       empcolor="#0099e5"
       empopacity="0.30196078"
       color="#0099e5"
       opacity="0.14901961"
       empspacing="5"
       dotted="false"
       gridanglex="30"
       gridanglez="30"
       visible="true" /></sodipodi:namedview><defs
     id="defs1" /><g
     inkscape:label="Layer 1"
     inkscape:groupmode="layer"
     id="layer1"><path
       style="fill:#3f3429;fill-opacity:1;stroke:none;stroke-linecap:round;stroke-linejoin:round"
       d="M 17,29 H 15 V 28 H 14 V 27 H 13 V 26.171875 26 H 12 V 25 H 11 V 24 H 10 V 23 H 9 V 22 H 8 V 21 H 7 V 20 H 6 V 19 H 5 V 18 H 4 V 17 H 3 V 8 H 4 V 6 H 5 V 5 H 6 V 4 H 8 V 3 h 4 v 1 h 1 v 1 h 1 v 1 h 1 V 7 L 16,6.9960937 17,7 V 6 h 1 V 5 h 1 V 4 h 1 V 3 h 4 v 1 h 2 v 1 h 1 v 1 h 1 v 2 h 1 c 0,0 0,9 0,9 h -1 v 1 h -1 v 1 h -1 v 1 h -1 v 1 h -1 v 1 h -1 v 1 h -1 v 1 h -1 v 1 h -1 v 1 h -1 v 1 h -1 v 1 h -1 z"
       id="path7" /><path
       style="fill:#3f3429;fill-opacity:1;stroke:none;stroke-linecap:round;stroke-linejoin:round"
       d="M 17,29 H 15 V 28 H 14 V 27 H 13 V 26.171875 26 H 12 V 25 H 11 V 24 H 10 V 23 H 9 V 22 H 8 V 21 H 7 V 20 H 6 V 19 H 5 V 18 H 4 V 17 H 3 V 8 H 4 V 6 H 5 V 5 H 6 V 4 H 8 V 3 h 4 v 1 h 1 v 1 h 1 v 1 h 1 V 7 L 16,6.9960937 17,7 V 6 h 1 V 5 h 1 V 4 h 1 V 3 h 4 v 1 h 2 v 1 h 1 v 1 h 1 v 2 h 1 c 0,0 0,9 0,9 h -1 v 1 h -1 v 1 h -1 v 1 h -1 v 1 h -1 v 1 h -1 v 1 h -1 v 1 h -1 v 1 h -1 v 1 h -1 v 1 h -1 v 1 h -1 z"
       id="path8" /></g></svg>
